<mxfile host="app.diagrams.net" modified="2022-03-28T03:29:42.126Z" agent="5.0 (Windows NT 10.0; Win64; x64) AppleWebKit/537.36 (KHTML, like Gecko) Chrome/98.0.4758.102 Safari/537.36" etag="FN_IG9zschkdBkiEIcaa" version="16.4.7" type="github">
  <diagram name="Page-1" id="6133507b-19e7-1e82-6fc7-422aa6c4b21f">
    <mxGraphModel dx="2522" dy="762" grid="1" gridSize="10" guides="1" tooltips="1" connect="1" arrows="1" fold="1" page="1" pageScale="1" pageWidth="1100" pageHeight="850" background="none" math="0" shadow="0">
      <root>
        <mxCell id="0" />
        <mxCell id="1" parent="0" />
        <mxCell id="78961159f06e98e8-17" value="htb_class" style="swimlane;html=1;fontStyle=1;align=center;verticalAlign=top;childLayout=stackLayout;horizontal=1;startSize=26;horizontalStack=0;resizeParent=1;resizeLast=0;collapsible=1;marginBottom=0;swimlaneFillColor=#ffffff;rounded=0;shadow=0;comic=0;labelBackgroundColor=none;strokeWidth=1;fillColor=none;fontFamily=Verdana;fontSize=12" parent="1" vertex="1">
          <mxGeometry x="180" y="90" width="200" height="560" as="geometry">
            <mxRectangle x="35" y="132" width="100" height="26" as="alternateBounds" />
          </mxGeometry>
        </mxCell>
        <object label="+ Qdisc_class_common common" id="78961159f06e98e8-24">
          <mxCell style="text;html=1;strokeColor=none;fillColor=none;align=left;verticalAlign=top;spacingLeft=4;spacingRight=4;whiteSpace=wrap;overflow=hidden;rotatable=0;points=[[0,0.5],[1,0.5]];portConstraint=eastwest;" parent="78961159f06e98e8-17" vertex="1">
            <mxGeometry y="26" width="200" height="24" as="geometry" />
          </mxCell>
        </object>
        <mxCell id="9ZVeMfdU3DixLRUunx6z-6" value="&amp;nbsp; + psched_ratecfg	rate，ceil" style="text;html=1;strokeColor=none;fillColor=none;align=left;verticalAlign=middle;whiteSpace=wrap;rounded=0;" vertex="1" parent="78961159f06e98e8-17">
          <mxGeometry y="50" width="200" height="30" as="geometry" />
        </mxCell>
        <mxCell id="9ZVeMfdU3DixLRUunx6z-14" value="&lt;div&gt;&lt;span&gt;&amp;nbsp;+ s64&lt;/span&gt;&lt;span&gt;			&lt;/span&gt;&lt;span&gt;buffer, cbuffer;&lt;/span&gt;&lt;/div&gt;" style="text;html=1;strokeColor=none;fillColor=none;align=left;verticalAlign=middle;whiteSpace=wrap;rounded=0;" vertex="1" parent="78961159f06e98e8-17">
          <mxGeometry y="80" width="200" height="30" as="geometry" />
        </mxCell>
        <mxCell id="9ZVeMfdU3DixLRUunx6z-15" value="&amp;nbsp;+ s64&amp;nbsp;mbuffer；" style="text;html=1;strokeColor=none;fillColor=none;align=left;verticalAlign=middle;whiteSpace=wrap;rounded=0;" vertex="1" parent="78961159f06e98e8-17">
          <mxGeometry y="110" width="200" height="30" as="geometry" />
        </mxCell>
        <mxCell id="9ZVeMfdU3DixLRUunx6z-16" value="&amp;nbsp;+ u32&lt;span&gt;			&lt;/span&gt;prio;" style="text;html=1;strokeColor=none;fillColor=none;align=left;verticalAlign=middle;whiteSpace=wrap;rounded=0;" vertex="1" parent="78961159f06e98e8-17">
          <mxGeometry y="140" width="200" height="30" as="geometry" />
        </mxCell>
        <mxCell id="9ZVeMfdU3DixLRUunx6z-19" value="&amp;nbsp;+ int&lt;span&gt;			&lt;/span&gt;quantum;" style="text;html=1;strokeColor=none;fillColor=none;align=left;verticalAlign=middle;whiteSpace=wrap;rounded=0;" vertex="1" parent="78961159f06e98e8-17">
          <mxGeometry y="170" width="200" height="30" as="geometry" />
        </mxCell>
        <mxCell id="9ZVeMfdU3DixLRUunx6z-26" value="&amp;nbsp;+ ... *filter_list, ... filter_cnt;" style="text;html=1;strokeColor=none;fillColor=none;align=left;verticalAlign=middle;whiteSpace=wrap;rounded=0;" vertex="1" parent="78961159f06e98e8-17">
          <mxGeometry y="200" width="200" height="30" as="geometry" />
        </mxCell>
        <mxCell id="9ZVeMfdU3DixLRUunx6z-27" value="&amp;nbsp;+ int&lt;span&gt;			&lt;/span&gt;refcnt;" style="text;html=1;strokeColor=none;fillColor=none;align=left;verticalAlign=middle;whiteSpace=wrap;rounded=0;" vertex="1" parent="78961159f06e98e8-17">
          <mxGeometry y="230" width="200" height="30" as="geometry" />
        </mxCell>
        <mxCell id="9ZVeMfdU3DixLRUunx6z-28" value="&amp;nbsp;+ int&lt;span&gt;&amp;nbsp;level&lt;/span&gt;;" style="text;html=1;strokeColor=none;fillColor=none;align=left;verticalAlign=middle;whiteSpace=wrap;rounded=0;" vertex="1" parent="78961159f06e98e8-17">
          <mxGeometry y="260" width="200" height="30" as="geometry" />
        </mxCell>
        <mxCell id="9ZVeMfdU3DixLRUunx6z-29" value="&amp;nbsp;+ unsigned int&lt;span&gt;&amp;nbsp;children&lt;/span&gt;;" style="text;html=1;strokeColor=none;fillColor=none;align=left;verticalAlign=middle;whiteSpace=wrap;rounded=0;" vertex="1" parent="78961159f06e98e8-17">
          <mxGeometry y="290" width="200" height="30" as="geometry" />
        </mxCell>
        <mxCell id="9ZVeMfdU3DixLRUunx6z-30" value="&amp;nbsp;+ htb_class *parent;" style="text;html=1;strokeColor=none;fillColor=none;align=left;verticalAlign=middle;whiteSpace=wrap;rounded=0;" vertex="1" parent="78961159f06e98e8-17">
          <mxGeometry y="320" width="200" height="30" as="geometry" />
        </mxCell>
        <mxCell id="9ZVeMfdU3DixLRUunx6z-31" value="&amp;nbsp;+ s64 tokens, ctokens, t_c;" style="text;html=1;strokeColor=none;fillColor=none;align=left;verticalAlign=middle;whiteSpace=wrap;rounded=0;" vertex="1" parent="78961159f06e98e8-17">
          <mxGeometry y="350" width="200" height="30" as="geometry" />
        </mxCell>
        <mxCell id="9ZVeMfdU3DixLRUunx6z-32" value="&amp;nbsp;+ union un;" style="text;html=1;strokeColor=none;fillColor=none;align=left;verticalAlign=middle;whiteSpace=wrap;rounded=0;" vertex="1" parent="78961159f06e98e8-17">
          <mxGeometry y="380" width="200" height="30" as="geometry" />
        </mxCell>
        <mxCell id="9ZVeMfdU3DixLRUunx6z-45" value="&amp;nbsp;+ s64 pq_key;" style="text;html=1;strokeColor=none;fillColor=none;align=left;verticalAlign=middle;whiteSpace=wrap;rounded=0;" vertex="1" parent="78961159f06e98e8-17">
          <mxGeometry y="410" width="200" height="30" as="geometry" />
        </mxCell>
        <mxCell id="9ZVeMfdU3DixLRUunx6z-48" value="&amp;nbsp;+ int prio_activity;" style="text;html=1;strokeColor=none;fillColor=none;align=left;verticalAlign=middle;whiteSpace=wrap;rounded=0;" vertex="1" parent="78961159f06e98e8-17">
          <mxGeometry y="440" width="200" height="30" as="geometry" />
        </mxCell>
        <mxCell id="9ZVeMfdU3DixLRUunx6z-49" value="&amp;nbsp;+ htb_cmode cmode;" style="text;html=1;strokeColor=none;fillColor=none;align=left;verticalAlign=middle;whiteSpace=wrap;rounded=0;" vertex="1" parent="78961159f06e98e8-17">
          <mxGeometry y="470" width="200" height="30" as="geometry" />
        </mxCell>
        <mxCell id="9ZVeMfdU3DixLRUunx6z-50" value="&amp;nbsp;+ rb_nod pq_node;" style="text;html=1;strokeColor=none;fillColor=none;align=left;verticalAlign=middle;whiteSpace=wrap;rounded=0;" vertex="1" parent="78961159f06e98e8-17">
          <mxGeometry y="500" width="200" height="30" as="geometry" />
        </mxCell>
        <mxCell id="9ZVeMfdU3DixLRUunx6z-51" value="&amp;nbsp;+ rb_node node[8];" style="text;html=1;strokeColor=none;fillColor=none;align=left;verticalAlign=middle;whiteSpace=wrap;rounded=0;" vertex="1" parent="78961159f06e98e8-17">
          <mxGeometry y="530" width="200" height="30" as="geometry" />
        </mxCell>
        <mxCell id="9ZVeMfdU3DixLRUunx6z-20" value="Qdisc_class_common" style="swimlane;fontStyle=1;childLayout=stackLayout;horizontal=1;startSize=30;horizontalStack=0;resizeParent=1;resizeParentMax=0;resizeLast=0;collapsible=1;marginBottom=0;" vertex="1" parent="1">
          <mxGeometry x="-60" y="90" width="140" height="90" as="geometry" />
        </mxCell>
        <mxCell id="9ZVeMfdU3DixLRUunx6z-21" value="+ u32			classid;" style="text;strokeColor=none;fillColor=none;align=left;verticalAlign=middle;spacingLeft=4;spacingRight=4;overflow=hidden;points=[[0,0.5],[1,0.5]];portConstraint=eastwest;rotatable=0;" vertex="1" parent="9ZVeMfdU3DixLRUunx6z-20">
          <mxGeometry y="30" width="140" height="30" as="geometry" />
        </mxCell>
        <mxCell id="9ZVeMfdU3DixLRUunx6z-22" value="+ hlist_node	hnode;" style="text;strokeColor=none;fillColor=none;align=left;verticalAlign=middle;spacingLeft=4;spacingRight=4;overflow=hidden;points=[[0,0.5],[1,0.5]];portConstraint=eastwest;rotatable=0;" vertex="1" parent="9ZVeMfdU3DixLRUunx6z-20">
          <mxGeometry y="60" width="140" height="30" as="geometry" />
        </mxCell>
        <mxCell id="9ZVeMfdU3DixLRUunx6z-37" value="union un" style="swimlane;html=1;fontStyle=1;align=center;verticalAlign=top;childLayout=stackLayout;horizontal=1;startSize=26;horizontalStack=0;resizeParent=1;resizeLast=0;collapsible=1;marginBottom=0;swimlaneFillColor=#ffffff;rounded=0;shadow=0;comic=0;labelBackgroundColor=none;strokeWidth=1;fillColor=none;fontFamily=Verdana;fontSize=12" vertex="1" parent="1">
          <mxGeometry x="-60" y="460" width="160" height="135" as="geometry" />
        </mxCell>
        <mxCell id="9ZVeMfdU3DixLRUunx6z-38" value="+ drop_list: list_head" style="text;html=1;strokeColor=none;fillColor=none;align=left;verticalAlign=top;spacingLeft=4;spacingRight=4;whiteSpace=wrap;overflow=hidden;rotatable=0;points=[[0,0.5],[1,0.5]];portConstraint=eastwest;" vertex="1" parent="9ZVeMfdU3DixLRUunx6z-37">
          <mxGeometry y="26" width="160" height="22" as="geometry" />
        </mxCell>
        <mxCell id="9ZVeMfdU3DixLRUunx6z-39" value="+ dficit[8]: int" style="text;html=1;strokeColor=none;fillColor=none;align=left;verticalAlign=top;spacingLeft=4;spacingRight=4;whiteSpace=wrap;overflow=hidden;rotatable=0;points=[[0,0.5],[1,0.5]];portConstraint=eastwest;" vertex="1" parent="9ZVeMfdU3DixLRUunx6z-37">
          <mxGeometry y="48" width="160" height="26" as="geometry" />
        </mxCell>
        <mxCell id="9ZVeMfdU3DixLRUunx6z-43" value="+ *q: Qdisc" style="text;html=1;strokeColor=none;fillColor=none;align=left;verticalAlign=top;spacingLeft=4;spacingRight=4;whiteSpace=wrap;overflow=hidden;rotatable=0;points=[[0,0.5],[1,0.5]];portConstraint=eastwest;" vertex="1" parent="9ZVeMfdU3DixLRUunx6z-37">
          <mxGeometry y="74" width="160" height="26" as="geometry" />
        </mxCell>
        <mxCell id="9ZVeMfdU3DixLRUunx6z-40" value="" style="line;html=1;strokeWidth=1;fillColor=none;align=left;verticalAlign=middle;spacingTop=-1;spacingLeft=3;spacingRight=3;rotatable=0;labelPosition=right;points=[];portConstraint=eastwest;" vertex="1" parent="9ZVeMfdU3DixLRUunx6z-37">
          <mxGeometry y="100" width="160" height="8" as="geometry" />
        </mxCell>
        <mxCell id="9ZVeMfdU3DixLRUunx6z-41" value="+ clprio[8]: htb_prio" style="text;html=1;strokeColor=none;fillColor=none;align=left;verticalAlign=top;spacingLeft=4;spacingRight=4;whiteSpace=wrap;overflow=hidden;rotatable=0;points=[[0,0.5],[1,0.5]];portConstraint=eastwest;" vertex="1" parent="9ZVeMfdU3DixLRUunx6z-37">
          <mxGeometry y="108" width="160" height="26" as="geometry" />
        </mxCell>
        <mxCell id="9ZVeMfdU3DixLRUunx6z-52" value="htb_level" style="swimlane;fontStyle=1;childLayout=stackLayout;horizontal=1;startSize=30;horizontalStack=0;resizeParent=1;resizeParentMax=0;resizeLast=0;collapsible=1;marginBottom=0;" vertex="1" parent="1">
          <mxGeometry x="720" y="450" width="140" height="90" as="geometry" />
        </mxCell>
        <mxCell id="9ZVeMfdU3DixLRUunx6z-53" value="+ wait_pq: rb_root" style="text;strokeColor=none;fillColor=none;align=left;verticalAlign=middle;spacingLeft=4;spacingRight=4;overflow=hidden;points=[[0,0.5],[1,0.5]];portConstraint=eastwest;rotatable=0;" vertex="1" parent="9ZVeMfdU3DixLRUunx6z-52">
          <mxGeometry y="30" width="140" height="30" as="geometry" />
        </mxCell>
        <mxCell id="9ZVeMfdU3DixLRUunx6z-54" value="+ hprio[8]: htb_prio" style="text;strokeColor=none;fillColor=none;align=left;verticalAlign=middle;spacingLeft=4;spacingRight=4;overflow=hidden;points=[[0,0.5],[1,0.5]];portConstraint=eastwest;rotatable=0;" vertex="1" parent="9ZVeMfdU3DixLRUunx6z-52">
          <mxGeometry y="60" width="140" height="30" as="geometry" />
        </mxCell>
        <mxCell id="9ZVeMfdU3DixLRUunx6z-56" value="htb_prio" style="swimlane;fontStyle=1;childLayout=stackLayout;horizontal=1;startSize=30;horizontalStack=0;resizeParent=1;resizeParentMax=0;resizeLast=0;collapsible=1;marginBottom=0;" vertex="1" parent="1">
          <mxGeometry x="900" y="420" width="140" height="120" as="geometry" />
        </mxCell>
        <mxCell id="9ZVeMfdU3DixLRUunx6z-57" value="+ row or feed: rb_root" style="text;strokeColor=none;fillColor=none;align=left;verticalAlign=middle;spacingLeft=4;spacingRight=4;overflow=hidden;points=[[0,0.5],[1,0.5]];portConstraint=eastwest;rotatable=0;" vertex="1" parent="9ZVeMfdU3DixLRUunx6z-56">
          <mxGeometry y="30" width="140" height="30" as="geometry" />
        </mxCell>
        <mxCell id="9ZVeMfdU3DixLRUunx6z-58" value="+ *ptr: rb_node" style="text;strokeColor=none;fillColor=none;align=left;verticalAlign=middle;spacingLeft=4;spacingRight=4;overflow=hidden;points=[[0,0.5],[1,0.5]];portConstraint=eastwest;rotatable=0;" vertex="1" parent="9ZVeMfdU3DixLRUunx6z-56">
          <mxGeometry y="60" width="140" height="30" as="geometry" />
        </mxCell>
        <mxCell id="9ZVeMfdU3DixLRUunx6z-59" value="+ last_ptr_id: u32" style="text;strokeColor=none;fillColor=none;align=left;verticalAlign=middle;spacingLeft=4;spacingRight=4;overflow=hidden;points=[[0,0.5],[1,0.5]];portConstraint=eastwest;rotatable=0;" vertex="1" parent="9ZVeMfdU3DixLRUunx6z-56">
          <mxGeometry y="90" width="140" height="30" as="geometry" />
        </mxCell>
        <mxCell id="9ZVeMfdU3DixLRUunx6z-60" style="edgeStyle=orthogonalEdgeStyle;rounded=0;orthogonalLoop=1;jettySize=auto;html=1;exitX=1;exitY=0.5;exitDx=0;exitDy=0;entryX=-0.014;entryY=0.108;entryDx=0;entryDy=0;entryPerimeter=0;" edge="1" parent="1" source="9ZVeMfdU3DixLRUunx6z-54" target="9ZVeMfdU3DixLRUunx6z-56">
          <mxGeometry relative="1" as="geometry" />
        </mxCell>
        <mxCell id="9ZVeMfdU3DixLRUunx6z-61" value="htb_sched" style="swimlane;fontStyle=1;childLayout=stackLayout;horizontal=1;startSize=30;horizontalStack=0;resizeParent=1;resizeParentMax=0;resizeLast=0;collapsible=1;marginBottom=0;" vertex="1" parent="1">
          <mxGeometry x="460" y="90" width="180" height="450" as="geometry" />
        </mxCell>
        <mxCell id="9ZVeMfdU3DixLRUunx6z-62" value="+ clhash: Qdisc_class_hash" style="text;strokeColor=none;fillColor=none;align=left;verticalAlign=middle;spacingLeft=4;spacingRight=4;overflow=hidden;points=[[0,0.5],[1,0.5]];portConstraint=eastwest;rotatable=0;" vertex="1" parent="9ZVeMfdU3DixLRUunx6z-61">
          <mxGeometry y="30" width="180" height="30" as="geometry" />
        </mxCell>
        <mxCell id="9ZVeMfdU3DixLRUunx6z-63" value="+ defcls: int" style="text;strokeColor=none;fillColor=none;align=left;verticalAlign=middle;spacingLeft=4;spacingRight=4;overflow=hidden;points=[[0,0.5],[1,0.5]];portConstraint=eastwest;rotatable=0;" vertex="1" parent="9ZVeMfdU3DixLRUunx6z-61">
          <mxGeometry y="60" width="180" height="30" as="geometry" />
        </mxCell>
        <mxCell id="9ZVeMfdU3DixLRUunx6z-64" value="+ rate2quantum: int" style="text;strokeColor=none;fillColor=none;align=left;verticalAlign=middle;spacingLeft=4;spacingRight=4;overflow=hidden;points=[[0,0.5],[1,0.5]];portConstraint=eastwest;rotatable=0;" vertex="1" parent="9ZVeMfdU3DixLRUunx6z-61">
          <mxGeometry y="90" width="180" height="30" as="geometry" />
        </mxCell>
        <mxCell id="9ZVeMfdU3DixLRUunx6z-66" value="+ warned: unsigned int" style="text;strokeColor=none;fillColor=none;align=left;verticalAlign=middle;spacingLeft=4;spacingRight=4;overflow=hidden;points=[[0,0.5],[1,0.5]];portConstraint=eastwest;rotatable=0;" vertex="1" parent="9ZVeMfdU3DixLRUunx6z-61">
          <mxGeometry y="120" width="180" height="30" as="geometry" />
        </mxCell>
        <mxCell id="9ZVeMfdU3DixLRUunx6z-67" value="+ direct_qlen: int" style="text;strokeColor=none;fillColor=none;align=left;verticalAlign=middle;spacingLeft=4;spacingRight=4;overflow=hidden;points=[[0,0.5],[1,0.5]];portConstraint=eastwest;rotatable=0;" vertex="1" parent="9ZVeMfdU3DixLRUunx6z-61">
          <mxGeometry y="150" width="180" height="30" as="geometry" />
        </mxCell>
        <mxCell id="9ZVeMfdU3DixLRUunx6z-68" value="+ work: work struct" style="text;strokeColor=none;fillColor=none;align=left;verticalAlign=middle;spacingLeft=4;spacingRight=4;overflow=hidden;points=[[0,0.5],[1,0.5]];portConstraint=eastwest;rotatable=0;" vertex="1" parent="9ZVeMfdU3DixLRUunx6z-61">
          <mxGeometry y="180" width="180" height="30" as="geometry" />
        </mxCell>
        <mxCell id="9ZVeMfdU3DixLRUunx6z-69" value="+ direct_queue: sk_buff_head" style="text;strokeColor=none;fillColor=none;align=left;verticalAlign=middle;spacingLeft=4;spacingRight=4;overflow=hidden;points=[[0,0.5],[1,0.5]];portConstraint=eastwest;rotatable=0;" vertex="1" parent="9ZVeMfdU3DixLRUunx6z-61">
          <mxGeometry y="210" width="180" height="30" as="geometry" />
        </mxCell>
        <mxCell id="9ZVeMfdU3DixLRUunx6z-72" value="+ direct_pkts: long" style="text;strokeColor=none;fillColor=none;align=left;verticalAlign=middle;spacingLeft=4;spacingRight=4;overflow=hidden;points=[[0,0.5],[1,0.5]];portConstraint=eastwest;rotatable=0;" vertex="1" parent="9ZVeMfdU3DixLRUunx6z-61">
          <mxGeometry y="240" width="180" height="30" as="geometry" />
        </mxCell>
        <mxCell id="9ZVeMfdU3DixLRUunx6z-73" value="+ watchdog: qdisc_watchdog" style="text;strokeColor=none;fillColor=none;align=left;verticalAlign=middle;spacingLeft=4;spacingRight=4;overflow=hidden;points=[[0,0.5],[1,0.5]];portConstraint=eastwest;rotatable=0;" vertex="1" parent="9ZVeMfdU3DixLRUunx6z-61">
          <mxGeometry y="270" width="180" height="30" as="geometry" />
        </mxCell>
        <mxCell id="9ZVeMfdU3DixLRUunx6z-74" value="+ now: s64" style="text;strokeColor=none;fillColor=none;align=left;verticalAlign=middle;spacingLeft=4;spacingRight=4;overflow=hidden;points=[[0,0.5],[1,0.5]];portConstraint=eastwest;rotatable=0;" vertex="1" parent="9ZVeMfdU3DixLRUunx6z-61">
          <mxGeometry y="300" width="180" height="30" as="geometry" />
        </mxCell>
        <mxCell id="9ZVeMfdU3DixLRUunx6z-75" value="+ drops[8]: list_head" style="text;strokeColor=none;fillColor=none;align=left;verticalAlign=middle;spacingLeft=4;spacingRight=4;overflow=hidden;points=[[0,0.5],[1,0.5]];portConstraint=eastwest;rotatable=0;" vertex="1" parent="9ZVeMfdU3DixLRUunx6z-61">
          <mxGeometry y="330" width="180" height="30" as="geometry" />
        </mxCell>
        <mxCell id="9ZVeMfdU3DixLRUunx6z-76" value="+ near_ev_cache[8]: s64" style="text;strokeColor=none;fillColor=none;align=left;verticalAlign=middle;spacingLeft=4;spacingRight=4;overflow=hidden;points=[[0,0.5],[1,0.5]];portConstraint=eastwest;rotatable=0;" vertex="1" parent="9ZVeMfdU3DixLRUunx6z-61">
          <mxGeometry y="360" width="180" height="30" as="geometry" />
        </mxCell>
        <mxCell id="9ZVeMfdU3DixLRUunx6z-77" value="+ row_mask[8]: int" style="text;strokeColor=none;fillColor=none;align=left;verticalAlign=middle;spacingLeft=4;spacingRight=4;overflow=hidden;points=[[0,0.5],[1,0.5]];portConstraint=eastwest;rotatable=0;" vertex="1" parent="9ZVeMfdU3DixLRUunx6z-61">
          <mxGeometry y="390" width="180" height="30" as="geometry" />
        </mxCell>
        <mxCell id="9ZVeMfdU3DixLRUunx6z-78" value="+ hlevel[8]: htb_level" style="text;strokeColor=none;fillColor=none;align=left;verticalAlign=middle;spacingLeft=4;spacingRight=4;overflow=hidden;points=[[0,0.5],[1,0.5]];portConstraint=eastwest;rotatable=0;" vertex="1" parent="9ZVeMfdU3DixLRUunx6z-61">
          <mxGeometry y="420" width="180" height="30" as="geometry" />
        </mxCell>
        <mxCell id="9ZVeMfdU3DixLRUunx6z-80" style="edgeStyle=orthogonalEdgeStyle;rounded=0;orthogonalLoop=1;jettySize=auto;html=1;exitX=1;exitY=0.5;exitDx=0;exitDy=0;entryX=-0.021;entryY=0.1;entryDx=0;entryDy=0;entryPerimeter=0;" edge="1" parent="1" source="9ZVeMfdU3DixLRUunx6z-78" target="9ZVeMfdU3DixLRUunx6z-52">
          <mxGeometry relative="1" as="geometry" />
        </mxCell>
        <mxCell id="9ZVeMfdU3DixLRUunx6z-81" value="Qdisc_class_hash" style="swimlane;fontStyle=1;childLayout=stackLayout;horizontal=1;startSize=30;horizontalStack=0;resizeParent=1;resizeParentMax=0;resizeLast=0;collapsible=1;marginBottom=0;" vertex="1" parent="1">
          <mxGeometry x="720" y="90" width="140" height="150" as="geometry" />
        </mxCell>
        <mxCell id="9ZVeMfdU3DixLRUunx6z-82" value="+ *hash: hlist_head" style="text;strokeColor=none;fillColor=none;align=left;verticalAlign=middle;spacingLeft=4;spacingRight=4;overflow=hidden;points=[[0,0.5],[1,0.5]];portConstraint=eastwest;rotatable=0;" vertex="1" parent="9ZVeMfdU3DixLRUunx6z-81">
          <mxGeometry y="30" width="140" height="30" as="geometry" />
        </mxCell>
        <mxCell id="9ZVeMfdU3DixLRUunx6z-83" value="+ hashsize: unsigned int" style="text;strokeColor=none;fillColor=none;align=left;verticalAlign=middle;spacingLeft=4;spacingRight=4;overflow=hidden;points=[[0,0.5],[1,0.5]];portConstraint=eastwest;rotatable=0;" vertex="1" parent="9ZVeMfdU3DixLRUunx6z-81">
          <mxGeometry y="60" width="140" height="30" as="geometry" />
        </mxCell>
        <mxCell id="9ZVeMfdU3DixLRUunx6z-84" value="+ hashmask: unsigned int" style="text;strokeColor=none;fillColor=none;align=left;verticalAlign=middle;spacingLeft=4;spacingRight=4;overflow=hidden;points=[[0,0.5],[1,0.5]];portConstraint=eastwest;rotatable=0;" vertex="1" parent="9ZVeMfdU3DixLRUunx6z-81">
          <mxGeometry y="90" width="140" height="30" as="geometry" />
        </mxCell>
        <mxCell id="9ZVeMfdU3DixLRUunx6z-85" value="+ hashelems: unsigned int" style="text;strokeColor=none;fillColor=none;align=left;verticalAlign=middle;spacingLeft=4;spacingRight=4;overflow=hidden;points=[[0,0.5],[1,0.5]];portConstraint=eastwest;rotatable=0;" vertex="1" parent="9ZVeMfdU3DixLRUunx6z-81">
          <mxGeometry y="120" width="140" height="30" as="geometry" />
        </mxCell>
        <mxCell id="9ZVeMfdU3DixLRUunx6z-86" style="edgeStyle=orthogonalEdgeStyle;rounded=0;orthogonalLoop=1;jettySize=auto;html=1;exitX=1;exitY=0.5;exitDx=0;exitDy=0;entryX=0.014;entryY=0.133;entryDx=0;entryDy=0;entryPerimeter=0;" edge="1" parent="1" source="9ZVeMfdU3DixLRUunx6z-62" target="9ZVeMfdU3DixLRUunx6z-81">
          <mxGeometry relative="1" as="geometry" />
        </mxCell>
        <mxCell id="9ZVeMfdU3DixLRUunx6z-88" style="edgeStyle=orthogonalEdgeStyle;rounded=0;orthogonalLoop=1;jettySize=auto;html=1;exitX=0;exitY=0.25;exitDx=0;exitDy=0;" edge="1" parent="1" source="9ZVeMfdU3DixLRUunx6z-32" target="9ZVeMfdU3DixLRUunx6z-37">
          <mxGeometry relative="1" as="geometry" />
        </mxCell>
        <mxCell id="9ZVeMfdU3DixLRUunx6z-89" style="edgeStyle=orthogonalEdgeStyle;rounded=0;orthogonalLoop=1;jettySize=auto;html=1;exitX=0;exitY=0.5;exitDx=0;exitDy=0;" edge="1" parent="1" source="78961159f06e98e8-24" target="9ZVeMfdU3DixLRUunx6z-21">
          <mxGeometry relative="1" as="geometry" />
        </mxCell>
        <mxCell id="9ZVeMfdU3DixLRUunx6z-90" style="edgeStyle=orthogonalEdgeStyle;rounded=0;orthogonalLoop=1;jettySize=auto;html=1;exitX=0;exitY=0.5;exitDx=0;exitDy=0;entryX=1;entryY=0.25;entryDx=0;entryDy=0;" edge="1" parent="1" source="9ZVeMfdU3DixLRUunx6z-78" target="9ZVeMfdU3DixLRUunx6z-28">
          <mxGeometry relative="1" as="geometry" />
        </mxCell>
      </root>
    </mxGraphModel>
  </diagram>
</mxfile>
